<svg width="107" height="64" viewBox="0 0 107 64" fill="none" xmlns="http://www.w3.org/2000/svg">
<path fill-rule="evenodd" clip-rule="evenodd" d="M39.7115 0.196201C39.799 0.290182 39.8545 0.408223 39.8353 0.458327C39.816 0.508715 39.837 0.564763 39.882 0.583163C39.9428 0.60779 39.9417 0.617698 39.8783 0.621661C39.831 0.624775 39.7925 0.655064 39.7925 0.689315C39.7925 0.723284 39.8505 0.736023 39.9216 0.717623C40.03 0.689316 40.0478 0.717623 40.0328 0.893978C40.0232 1.00976 40.0425 1.08732 40.0762 1.06637C40.1098 1.04571 40.1195 0.999847 40.098 0.965029C40.0762 0.929928 40.0912 0.901055 40.1311 0.901055C40.171 0.901055 40.2061 0.985977 40.2089 1.08958C40.212 1.19319 40.2299 1.23933 40.2488 1.19234C40.2859 1.1009 40.4144 1.07175 40.4008 1.15809C40.3745 1.32453 40.4127 1.41229 40.471 1.32C40.5152 1.25037 40.5438 1.28235 40.5783 1.44059C40.6044 1.55892 40.6525 1.63931 40.685 1.61921C40.7176 1.59883 40.7335 1.63988 40.7199 1.71008C40.7063 1.78028 40.7264 1.88106 40.764 1.93456C40.8172 2.00929 40.8235 2.00193 40.7906 1.90172C40.7552 1.79274 40.7649 1.78594 40.8512 1.85756C40.9279 1.92125 40.9364 1.97617 40.8846 2.0727C40.8003 2.23065 40.8416 2.23971 40.9865 2.09506C41.0457 2.0359 41.0941 2.02033 41.0941 2.06081C41.0941 2.101 41.1402 2.13412 41.1968 2.13412C41.2532 2.13412 41.2996 2.18026 41.2996 2.23688C41.2996 2.29349 41.3324 2.33964 41.3726 2.33964C41.4145 2.33964 41.4273 2.39795 41.4024 2.47664C41.3763 2.55817 41.3899 2.61365 41.436 2.61365C41.4785 2.61365 41.4915 2.57883 41.4652 2.53609C41.4377 2.49193 41.453 2.4707 41.5006 2.48655C41.5464 2.50184 41.5739 2.5409 41.5614 2.57317C41.5493 2.60572 41.6081 2.65753 41.6922 2.68867C41.7919 2.72546 41.8312 2.78208 41.8049 2.8503C41.7828 2.90805 41.7293 2.93409 41.6863 2.90833C41.643 2.88257 41.654 2.91937 41.7106 2.99042C41.7704 3.06544 41.7777 3.09799 41.7276 3.06798C41.6735 3.03543 41.6421 3.05666 41.6421 3.12545C41.6421 3.18546 41.6883 3.25226 41.7449 3.27378C41.8694 3.32162 41.8802 3.47957 41.7619 3.52713C41.7149 3.5461 41.7457 3.56421 41.8304 3.56733C41.9456 3.57129 41.9846 3.61375 41.9846 3.73547C41.9846 3.82492 42.0305 3.93645 42.0865 3.98288C42.1426 4.02959 42.1729 4.09271 42.1539 4.12357C42.1349 4.15442 42.1477 4.19716 42.1825 4.21868C42.2173 4.24019 42.2303 4.31577 42.2119 4.38682C42.1933 4.45788 42.2102 4.536 42.2496 4.56035C42.2889 4.58469 42.3037 4.6498 42.2824 4.705C42.2561 4.77379 42.2895 4.80549 42.3883 4.80549C42.4676 4.80549 42.5327 4.83974 42.5327 4.88135C42.5327 4.92551 42.4823 4.93797 42.4126 4.91136C42.3223 4.87682 42.33 4.90032 42.4441 5.00676C42.5273 5.0846 42.6286 5.14801 42.6691 5.14801C42.7218 5.14801 42.7218 5.18764 42.6697 5.28502C42.617 5.38324 42.6173 5.42202 42.6711 5.42202C42.7124 5.42202 42.7274 5.4526 42.7042 5.48968C42.6796 5.52988 42.7099 5.53922 42.7789 5.51289C42.8757 5.47553 42.8882 5.4976 42.8517 5.64282C42.818 5.77672 42.837 5.82512 42.9326 5.85003C43.0014 5.86815 43.0578 5.93184 43.0578 5.99185C43.0578 6.05186 43.0348 6.08697 43.0071 6.0697C42.9791 6.05243 42.9915 6.11329 43.0348 6.20444C43.0872 6.31569 43.13 6.344 43.1642 6.29021C43.1922 6.24605 43.2092 6.38476 43.2016 6.59848C43.1928 6.84419 43.1617 6.97157 43.1169 6.94496C43.0781 6.92175 43.0855 6.95119 43.1333 7.01035C43.1936 7.0848 43.2123 7.29852 43.1942 7.70841C43.1778 8.08377 43.1939 8.29919 43.2387 8.29919C43.2771 8.29919 43.2885 8.31928 43.2638 8.34419C43.1911 8.41666 43.3553 8.56839 43.4623 8.52734C43.5161 8.50668 43.5599 8.52395 43.5599 8.56584C43.5599 8.60745 43.5928 8.64142 43.6327 8.64142C43.6726 8.64142 43.6862 8.61085 43.6627 8.57292C43.6395 8.53527 43.6468 8.50441 43.6791 8.50441C43.7114 8.50441 43.7431 9.04735 43.7496 9.71087C43.757 10.482 43.7889 10.9505 43.8379 11.0093C43.8798 11.06 43.8914 11.1384 43.8637 11.1837C43.8314 11.2355 43.8419 11.2477 43.892 11.2168C43.9395 11.1874 43.971 11.2131 43.971 11.2819C43.971 11.3592 43.935 11.3824 43.8597 11.3536C43.7601 11.3153 43.7587 11.3272 43.8461 11.4659C43.8999 11.5514 43.95 11.7119 43.9577 11.8229C43.9653 11.9339 44.0004 12.0426 44.0358 12.0641C44.0709 12.0859 44.0927 12.2617 44.0836 12.4544C44.0703 12.7457 44.0853 12.7984 44.1734 12.7655C44.2648 12.7313 44.2662 12.7417 44.1852 12.8414C44.1054 12.9396 44.1057 12.9569 44.187 12.9569C44.2659 12.9569 44.2857 13.2411 44.2982 14.5707C44.3098 15.7769 44.2937 16.1723 44.2345 16.1358C44.1807 16.1024 44.1742 16.1174 44.2141 16.1819C44.2464 16.234 44.277 16.3342 44.2821 16.4042C44.2874 16.4744 44.3214 16.5519 44.3582 16.5765C44.3947 16.6015 44.4228 16.7141 44.4205 16.8273C44.4182 16.9403 44.4601 17.0671 44.5139 17.109C44.5677 17.1512 44.6189 17.259 44.6283 17.3488C44.6373 17.4388 44.6535 17.6103 44.6642 17.7304C44.6747 17.8504 44.7053 17.9353 44.7319 17.9186C44.7585 17.9022 44.7656 17.8195 44.7477 17.7349C44.7188 17.5979 44.7237 17.5942 44.7924 17.702C44.8349 17.7686 44.8516 17.8807 44.8295 17.9509C44.8046 18.0287 44.8275 18.093 44.8884 18.1165C44.951 18.1405 44.9739 18.2085 44.9498 18.2999C44.9221 18.4066 44.9487 18.4547 45.0512 18.4816C45.1553 18.5088 45.1851 18.564 45.1689 18.7002C45.1568 18.8004 45.1921 18.9524 45.2468 19.0382C45.3017 19.1242 45.3283 19.2244 45.3057 19.2609C45.283 19.2974 45.2991 19.3275 45.3419 19.3275C45.3843 19.3275 45.4628 19.371 45.516 19.424C45.5692 19.4772 45.6762 19.5041 45.7538 19.484C45.8472 19.4594 45.8879 19.4769 45.8749 19.5352C45.8639 19.5839 45.9318 19.6445 46.0261 19.67C46.1201 19.6954 46.1894 19.7529 46.1798 19.7974C46.1682 19.8506 46.2186 19.8642 46.3264 19.837C46.4167 19.8143 46.5113 19.8291 46.5365 19.8698C46.5619 19.9114 46.5333 19.944 46.4714 19.944C46.4102 19.944 46.3779 19.9726 46.3997 20.0074C46.4212 20.0422 46.5365 20.0583 46.6556 20.0433C46.7748 20.0283 46.9132 20.0496 46.9631 20.0912C47.029 20.1458 47.0536 20.145 47.0536 20.0878C47.0536 20.0374 47.1139 20.0487 47.2218 20.1195C47.3143 20.1801 47.4222 20.2098 47.4615 20.1854C47.5009 20.1614 47.5329 20.1741 47.5329 20.214C47.5329 20.2537 47.5717 20.2789 47.6187 20.2692C47.6656 20.2599 47.6962 20.2913 47.6866 20.3392C47.6744 20.3997 47.7211 20.4133 47.8409 20.3833C47.9708 20.3505 48.0124 20.3669 48.0124 20.4504C48.0124 20.5152 48.0693 20.5605 48.1517 20.5605C48.2281 20.5605 48.3085 20.6067 48.3303 20.6633C48.3518 20.7196 48.4144 20.766 48.469 20.766C48.5239 20.766 48.5494 20.7969 48.5262 20.8345C48.503 20.8722 48.5205 20.903 48.5655 20.903C48.6655 20.903 49.1085 21.3633 49.1085 21.4672C49.1085 21.5085 49.128 21.5227 49.1518 21.4989C49.22 21.4307 49.4683 21.7865 49.4272 21.8938C49.4068 21.9467 49.4218 22.0005 49.4603 22.0135C49.4988 22.0263 49.5537 22.144 49.5821 22.2748C49.6106 22.4056 49.6698 22.505 49.7137 22.4956C49.7576 22.4863 49.7935 22.5248 49.7935 22.5811C49.7935 22.6377 49.8221 22.6839 49.8575 22.6839C49.8926 22.6839 49.941 22.7461 49.965 22.822C49.9891 22.8979 50.031 22.9463 50.0582 22.9293C50.1318 22.884 50.1386 23.1676 50.0672 23.301C50.0273 23.3751 50.0336 23.4445 50.0845 23.4954C50.144 23.5552 50.1439 23.5744 50.0842 23.5744C50.0406 23.5744 49.9854 23.6803 49.9611 23.8094C49.9367 23.9387 49.8739 24.061 49.821 24.0811C49.6871 24.1326 49.738 24.3664 49.9172 24.5219C50.1074 24.6869 50.1114 24.7673 49.9246 24.6674C49.7009 24.5476 49.71 24.6252 49.9348 24.7543C50.1289 24.8655 50.136 24.8647 50.136 24.7316C50.136 24.6558 50.1669 24.613 50.2045 24.6362C50.2422 24.6594 50.273 24.7384 50.273 24.8114C50.273 24.9516 50.3815 24.9954 50.4228 24.8717C50.4477 24.7967 50.833 24.9569 50.825 25.0393C50.8114 25.1814 50.8321 25.2097 50.9238 25.1746C50.9802 25.1531 51.0266 25.1684 51.0266 25.2089C51.0266 25.2496 51.0775 25.2629 51.1404 25.2389C51.2171 25.2094 51.2383 25.2213 51.2049 25.2754C51.1721 25.3286 51.2143 25.3555 51.3306 25.3555C51.4271 25.3555 51.5058 25.3864 51.5058 25.424C51.5058 25.4617 51.5486 25.4925 51.6006 25.4925C51.6527 25.4925 51.7113 25.5528 51.7306 25.6267C51.7561 25.7244 51.8098 25.7532 51.927 25.7323C52.085 25.7037 52.0856 25.7051 51.9511 25.8084C51.8209 25.9089 51.8248 25.9123 52.0372 25.8803C52.2076 25.8546 52.2829 25.8792 52.357 25.9853C52.4131 26.0655 52.4884 26.1025 52.5354 26.0734C52.594 26.0372 52.6024 26.0683 52.5651 26.1855C52.5189 26.3313 52.5252 26.3381 52.6282 26.2526C52.7513 26.1504 53.1216 26.3995 53.0409 26.53C53.0053 26.5877 53.1038 26.6152 53.2699 26.5934C53.3169 26.5874 53.3554 26.6146 53.3554 26.654C53.3554 26.6933 53.4004 26.7253 53.4556 26.7253C53.5793 26.7253 53.8432 26.999 53.7948 27.0774C53.7752 27.1091 53.8072 27.1165 53.8655 27.0941C53.925 27.0712 53.972 27.0893 53.972 27.1346C53.972 27.1796 54.009 27.204 54.0543 27.189C54.1582 27.1542 54.383 27.3424 54.383 27.4638C54.383 27.5142 54.4138 27.5363 54.4515 27.5131C54.4891 27.4899 54.52 27.5035 54.52 27.5434C54.52 27.5833 54.5653 27.6159 54.6205 27.6159C54.6819 27.6159 54.7057 27.656 54.6816 27.7186C54.6448 27.8149 54.7314 27.857 54.8968 27.8239C54.9344 27.8163 54.9446 27.8304 54.9194 27.8556C54.8696 27.9054 55.1006 28.1639 55.1951 28.1639C55.2271 28.1639 55.2885 28.2641 55.331 28.3864C55.3737 28.5089 55.3955 28.5361 55.3794 28.4467L55.3502 28.2842L55.483 28.4266C55.556 28.505 55.6161 28.6012 55.6161 28.6406C55.6161 28.6796 55.6775 28.7119 55.7531 28.7119C55.8284 28.7119 55.8898 28.7428 55.8898 28.7804C55.8898 28.8181 55.9303 28.8489 55.9798 28.8489C56.029 28.8489 56.1293 28.9038 56.2023 28.9706C56.2753 29.0377 56.3911 29.0813 56.4593 29.0677C56.5304 29.0533 56.6481 29.1181 56.7353 29.2197C56.8191 29.3171 56.9527 29.397 57.0323 29.397C57.1118 29.397 57.1953 29.4451 57.218 29.504C57.2403 29.5628 57.2899 29.592 57.3278 29.5685C57.3657 29.545 57.3969 29.5739 57.3969 29.6325C57.3969 29.6913 57.4294 29.7395 57.4693 29.7395C57.5092 29.7395 57.5194 29.701 57.492 29.6537C57.4645 29.6067 57.5044 29.6228 57.5806 29.6896C57.657 29.7565 57.768 29.7927 57.8269 29.77C57.8894 29.746 57.9961 29.7907 58.0819 29.8765C58.1631 29.9574 58.2707 30.0081 58.3214 29.9889C58.4205 29.9506 58.5178 30.123 58.4547 30.2249C58.4188 30.2833 58.618 30.3192 58.8236 30.2912C58.8737 30.2844 58.9303 30.3387 58.9492 30.4118C58.9685 30.4848 59.0585 30.5785 59.1494 30.6201C59.2405 30.6614 59.315 30.7268 59.315 30.7653C59.315 30.8038 59.3798 30.8352 59.4593 30.8352C59.5556 30.8352 59.5912 30.8675 59.5663 30.9323C59.5457 30.9858 59.5734 31.0464 59.6275 31.0674C59.6816 31.088 59.726 31.0829 59.726 31.0558C59.726 31.0289 59.9649 31.0028 60.2568 30.9986C60.5486 30.9941 60.7261 31.0048 60.6505 31.0224C60.4076 31.0787 60.3912 31.1636 60.6273 31.1427C60.7533 31.1313 60.8484 31.0883 60.839 31.0473C60.8297 31.0059 60.8699 30.9723 60.9288 30.9723C60.9922 30.9723 61.0157 31.0045 60.9865 31.0515C60.9528 31.1059 60.984 31.1189 61.085 31.0923C61.1663 31.071 61.2328 31.0815 61.2328 31.1158C61.2328 31.15 61.3514 31.1778 61.4963 31.1778C61.7021 31.1778 61.7763 31.2117 61.8343 31.332C61.8751 31.4167 61.9108 31.4475 61.9133 31.4005C61.9209 31.2565 62.1534 31.3049 62.3889 31.4999C62.6323 31.7015 62.7396 31.7391 63.0416 31.7289C63.16 31.7249 63.3057 31.7833 63.4011 31.873C63.4895 31.9559 63.5619 31.9876 63.5619 31.9432C63.5619 31.899 63.5928 31.8628 63.6304 31.8628C63.6681 31.8628 63.6989 31.9089 63.6989 31.9656C63.6989 32.055 63.8235 32.1026 63.9894 32.0765C64.0768 32.0629 64.3155 32.2996 64.3155 32.3998C64.3155 32.4604 64.3636 32.4827 64.4477 32.4607C64.5224 32.4411 64.6385 32.4808 64.7143 32.5512C64.7882 32.6203 64.8723 32.6554 64.9011 32.6294C64.93 32.6033 64.9334 32.6381 64.9088 32.7064C64.8728 32.8071 64.8904 32.8224 65.0008 32.7873C65.0976 32.7568 65.1372 32.7754 65.1372 32.8516C65.1372 32.9105 65.1837 32.9589 65.24 32.9589C65.2966 32.9589 65.3433 32.9974 65.3439 33.0444C65.3444 33.1015 65.3671 33.0959 65.4112 33.0274C65.4478 32.9708 65.4783 32.9558 65.4789 32.9937C65.4795 33.0319 65.5446 33.1035 65.6241 33.1528C65.7034 33.2023 65.7478 33.2102 65.7232 33.17C65.6963 33.1267 65.7184 33.1129 65.7778 33.1355C65.8325 33.1567 65.8928 33.2335 65.912 33.3062C65.931 33.3792 66.0029 33.4361 66.0728 33.4336C66.1883 33.4291 66.1872 33.4237 66.062 33.3699C65.9386 33.317 65.9375 33.3104 66.0499 33.3062C66.1184 33.3034 66.2194 33.3464 66.2743 33.401C66.3293 33.4559 66.4196 33.4837 66.475 33.4625C66.5379 33.4381 66.5758 33.465 66.5758 33.5338C66.5758 33.6164 66.6438 33.6439 66.8498 33.6439C67.0228 33.6439 67.1241 33.6753 67.125 33.7294C67.1255 33.7866 67.1479 33.7809 67.1923 33.7124C67.26 33.6077 67.2994 33.6977 67.2651 33.878C67.2586 33.9125 67.2934 33.9094 67.3427 33.8707C67.4621 33.7764 67.951 33.8256 68.1514 33.9522C68.2077 33.9878 68.3122 34.0077 68.3835 33.9958C68.4792 33.9799 68.5018 34.0037 68.4699 34.0866C68.4464 34.1483 68.4551 34.1815 68.49 34.1599C68.5245 34.1384 68.5981 34.1854 68.6533 34.2641C68.7159 34.3536 68.7705 34.3799 68.7991 34.3338C68.824 34.2933 68.8067 34.2604 68.7603 34.2604C68.7141 34.2604 68.6943 34.2423 68.7161 34.2205C68.7753 34.1616 69.1153 34.4023 69.072 34.4725C69.0513 34.5056 69.0824 34.5144 69.141 34.492C69.2126 34.4645 69.2492 34.4926 69.2528 34.5783C69.2557 34.6505 69.2729 34.6683 69.2928 34.6199C69.3414 34.4991 69.6356 34.5132 69.6837 34.6386C69.7094 34.706 69.783 34.7323 69.8909 34.7128C69.9829 34.6961 70.1148 34.7284 70.1836 34.7847C70.2527 34.841 70.2657 34.8645 70.2127 34.8371C70.1587 34.809 70.1341 34.8153 70.1564 34.8512C70.1782 34.8866 70.3212 34.9087 70.4737 34.8999C70.6688 34.8891 70.7698 34.9169 70.8129 34.9936C70.8615 35.0808 70.9802 35.1 71.4028 35.0887C71.7595 35.0794 71.9168 35.0983 71.8868 35.147C71.8622 35.1867 71.8902 35.2192 71.9491 35.2192C72.0077 35.2192 72.0558 35.2656 72.0558 35.322C72.0558 35.3786 72.1031 35.4247 72.1606 35.4247C72.2183 35.4247 72.2834 35.4711 72.3049 35.5275C72.3567 35.6625 72.4669 35.6597 72.4669 35.5235C72.4669 35.4649 72.498 35.436 72.5365 35.4598C72.5747 35.4833 72.5852 35.5363 72.56 35.5773C72.5297 35.626 72.5651 35.6384 72.6616 35.6133C72.7426 35.592 72.8292 35.6073 72.8541 35.6472C72.8804 35.69 72.8663 35.6999 72.8199 35.671C72.7763 35.6441 72.7409 35.6549 72.7409 35.6948C72.7409 35.7619 72.9305 35.7992 73.136 35.7721C73.2527 35.7568 73.4256 35.9362 73.4256 36.0718C73.4256 36.1528 73.4681 36.1703 73.5904 36.1395C73.7237 36.1061 73.7735 36.1352 73.8502 36.2923C73.9303 36.4557 73.9822 36.4837 74.1746 36.4678C74.3649 36.4523 74.3903 36.4656 74.3244 36.5451C74.261 36.6218 74.2763 36.6496 74.4005 36.6836C74.5319 36.7198 74.5401 36.7376 74.4532 36.7993C74.3736 36.8559 74.3875 36.8619 74.5149 36.8257C74.6499 36.7874 74.6714 36.7996 74.6358 36.8933C74.6114 36.9562 74.6202 36.9898 74.6547 36.9686C74.6896 36.9471 74.7374 36.9615 74.7615 37.0003C74.7855 37.0391 74.8336 37.0535 74.8682 37.032C74.9027 37.0108 74.9129 37.0411 74.8903 37.0994C74.8642 37.1679 74.888 37.2058 74.9576 37.2058C75.0207 37.2058 75.0505 37.2446 75.0295 37.2998C75.0097 37.3513 75.0431 37.4127 75.1037 37.436C75.1677 37.4606 75.1963 37.4498 75.1719 37.4105C75.119 37.3244 75.2101 37.325 75.3437 37.4113C75.4352 37.4702 75.4352 37.4784 75.3437 37.4844C75.2871 37.488 75.3423 37.5353 75.4663 37.5894C75.59 37.6435 75.7089 37.7335 75.7304 37.7892C75.7519 37.845 75.8417 37.8909 75.93 37.8909C76.0183 37.8909 76.125 37.9446 76.1675 38.0106C76.2269 38.1032 76.2371 38.1057 76.2114 38.0214C76.1859 37.9376 76.2162 37.9195 76.3424 37.9435C76.4327 37.9608 76.4896 38.0024 76.4692 38.0355C76.4486 38.0689 76.5233 38.0964 76.6354 38.0964C76.7475 38.0964 76.8517 38.1332 76.8667 38.1785C76.8817 38.2238 77.0076 38.2606 77.1463 38.2606C77.3077 38.2606 77.3988 38.2928 77.3988 38.3497C77.3988 38.4055 77.4866 38.4389 77.6344 38.4389C77.764 38.4389 77.8925 38.4748 77.9197 38.519C77.9534 38.5734 77.9313 38.5847 77.8518 38.5538C77.7768 38.5252 77.7507 38.5354 77.7796 38.5824C77.8048 38.6232 77.8835 38.641 77.9545 38.6223C78.0256 38.6039 78.0836 38.6167 78.0836 38.6506C78.0836 38.6849 78.1164 38.7129 78.1564 38.7129C78.1963 38.7129 78.2099 38.6821 78.1864 38.6444C78.1631 38.6065 78.1745 38.5759 78.2118 38.5759C78.305 38.5759 78.4943 38.7732 78.4958 38.8717C78.4963 38.9246 78.517 38.9207 78.5555 38.8598C78.6045 38.7828 78.6418 38.7823 78.7771 38.857C78.8666 38.9065 78.9784 38.9391 79.0257 38.9297C79.0727 38.9201 79.1112 38.9436 79.1112 38.9815C79.1112 39.0198 79.1624 39.0314 79.2252 39.0073C79.302 38.9779 79.3229 38.9897 79.2898 39.0435C79.2374 39.1282 79.2476 39.1327 79.5287 39.1483C79.6266 39.1537 79.7574 39.2001 79.8194 39.2516C79.8817 39.3031 80.0382 39.3481 80.1676 39.3518C80.2972 39.3552 80.3881 39.3824 80.3697 39.4121C80.3417 39.4574 80.6035 39.4993 80.7683 39.4758C80.794 39.4721 80.8328 39.5239 80.854 39.591C80.8841 39.6858 80.9472 39.7062 81.14 39.6838C81.2976 39.6655 81.4077 39.6875 81.4431 39.745C81.4737 39.7943 81.5858 39.8367 81.6919 39.839C81.7984 39.8412 81.9241 39.8678 81.9711 39.8984C82.0234 39.9324 82.0565 39.9205 82.0565 39.8681C82.0565 39.8209 82.099 39.8407 82.1514 39.9123C82.2219 40.0085 82.3178 40.0377 82.5228 40.0258C82.6748 40.0167 82.8208 40.0445 82.8475 40.0878C82.8811 40.1421 82.846 40.1523 82.7331 40.1212C82.5802 40.079 82.5785 40.0813 82.7073 40.1608C82.7823 40.2075 82.942 40.239 83.0617 40.2307C83.1815 40.2228 83.299 40.2477 83.3227 40.2865C83.3468 40.325 83.4801 40.3573 83.6191 40.3578C83.8076 40.3587 83.8459 40.3757 83.7691 40.4252C83.7125 40.4617 83.682 40.4946 83.7006 40.498C83.7196 40.5014 83.7966 40.5167 83.8719 40.5322C83.9472 40.5475 84.1323 40.5653 84.2829 40.5718C84.4335 40.5784 84.5787 40.6171 84.6053 40.6576C84.6317 40.6984 84.8012 40.7321 84.9818 40.7326C85.2437 40.7332 85.3088 40.7564 85.3023 40.8456C85.2955 40.9367 85.3546 40.9551 85.6179 40.9432C85.8444 40.9331 85.9397 40.9548 85.9344 41.0154C85.9304 41.0633 85.9576 41.0964 85.9949 41.089C86.0323 41.082 86.0552 41.0426 86.0459 41.0018C86.0366 40.9611 86.0753 40.9277 86.132 40.9277C86.1889 40.9277 86.2353 40.9693 86.2353 41.0202C86.2353 41.0862 86.2874 41.0998 86.4159 41.0675C86.5566 41.0321 86.6259 41.0585 86.7298 41.1861L86.8634 41.35L86.8266 41.1788C86.7912 41.0132 86.7935 41.012 86.892 41.1439C86.9696 41.2481 87.0729 41.2801 87.3282 41.2793C87.5385 41.2784 87.6472 41.3042 87.6206 41.3483C87.5971 41.388 87.6218 41.3854 87.6775 41.3421C87.8123 41.2382 88.0161 41.2498 88.0161 41.3613C88.0161 41.4199 88.1013 41.4528 88.2536 41.4528C88.4158 41.4528 88.4809 41.4799 88.4585 41.5383C88.4348 41.6 88.5154 41.6218 88.747 41.6155C89.0388 41.6082 89.271 41.7008 89.211 41.8007C89.1979 41.8225 89.3531 41.8329 89.556 41.8242C89.8354 41.8123 89.9164 41.8301 89.8906 41.8978C89.8649 41.9643 89.9186 41.9784 90.1021 41.9538C90.2988 41.9272 90.3761 41.9527 90.4887 42.0806C90.5663 42.1687 90.6119 42.2052 90.5904 42.1622C90.5689 42.1189 90.6008 42.0645 90.6614 42.0413C90.7393 42.0116 90.7599 42.0288 90.7325 42.1005C90.7016 42.1811 90.7364 42.193 90.9049 42.1593C91.0617 42.1279 91.1325 42.1466 91.18 42.2315C91.2151 42.2946 91.2734 42.328 91.3094 42.3057C91.3453 42.2836 91.3572 42.2366 91.3354 42.2015C91.3136 42.1664 91.3442 42.1378 91.4028 42.1378C91.4617 42.1378 91.5095 42.1874 91.5095 42.2479C91.5095 42.3176 91.5472 42.3433 91.6123 42.3184C91.6689 42.2969 91.715 42.302 91.715 42.33C91.715 42.358 91.8387 42.3694 91.9896 42.3549C92.1999 42.3348 92.256 42.3504 92.2288 42.4217C92.2016 42.4922 92.2761 42.5146 92.5388 42.5146C92.729 42.5146 92.9068 42.5503 92.9337 42.5938C92.9605 42.6377 93.0752 42.6839 93.1881 42.6966C93.3141 42.711 93.386 42.7552 93.3744 42.8107C93.3642 42.8605 93.3877 42.8817 93.4271 42.8574C93.4661 42.833 93.4806 42.7846 93.459 42.7495C93.4372 42.7144 93.4675 42.6858 93.5264 42.6858C93.649 42.6858 93.6634 42.7589 93.5646 42.8775C93.5148 42.9372 93.5185 42.9412 93.5782 42.8914C93.6937 42.7951 94.0671 42.8059 94.1775 42.9083C94.2364 42.963 94.2536 42.9652 94.225 42.9143C94.1616 42.8011 94.3841 42.8446 94.4549 42.9596C94.4866 43.0105 94.5817 43.0629 94.6666 43.0759C94.7516 43.0889 94.8696 43.1373 94.9293 43.1838C95.0227 43.2568 95.0256 43.2531 94.9503 43.1566C94.8747 43.0598 94.8883 43.0451 95.053 43.0431C95.1671 43.042 95.29 43.1 95.3613 43.1889C95.4261 43.2701 95.4802 43.2979 95.481 43.2509C95.4819 43.2039 95.5306 43.1654 95.5894 43.1654C95.648 43.1654 95.6772 43.1957 95.6543 43.233C95.6302 43.2718 95.658 43.2831 95.7197 43.2596C95.7785 43.237 95.8785 43.2605 95.9419 43.3117C96.0407 43.3918 96.0494 43.3904 96.0044 43.3024C95.9756 43.2458 95.9971 43.2545 96.052 43.3222C96.1264 43.4128 96.221 43.4371 96.4169 43.4156C96.5813 43.3978 96.722 43.4227 96.7891 43.4813C96.8486 43.5334 96.9873 43.5801 97.0974 43.5855C97.3527 43.5979 97.7442 43.7244 97.7083 43.7828C97.693 43.8074 97.7241 43.8275 97.7773 43.8275C97.8305 43.8275 97.858 43.8017 97.8388 43.7703C97.7751 43.6673 97.8773 43.7106 98.0092 43.8422C98.0978 43.9311 98.1971 43.96 98.3276 43.9351C98.4768 43.9065 98.5048 43.9192 98.4593 43.9945C98.4106 44.0755 98.4191 44.0757 98.5167 43.9968C98.6149 43.9172 98.6379 43.9189 98.6721 44.0084C98.6987 44.0774 98.7715 44.1026 98.885 44.082C99.0916 44.0446 99.3187 44.1069 99.3187 44.2014C99.3187 44.2388 99.2799 44.2473 99.2329 44.2201C99.1859 44.1929 99.1684 44.1944 99.1941 44.2229C99.2202 44.2518 99.4511 44.2798 99.7079 44.2855C100.029 44.2923 100.17 44.3209 100.159 44.3775C100.148 44.4352 100.264 44.4556 100.546 44.446C100.768 44.4384 100.934 44.4568 100.916 44.4865C100.898 44.5162 100.964 44.5202 101.065 44.495C101.313 44.4327 101.563 44.5799 101.616 44.8197C101.639 44.9275 101.687 44.9986 101.722 44.977C101.756 44.9555 101.785 44.9861 101.785 45.045C101.785 45.1036 101.833 45.1517 101.891 45.1517C101.95 45.1517 101.979 45.1826 101.956 45.2202C101.933 45.2579 101.948 45.2887 101.99 45.2887C102.032 45.2887 102.05 45.315 102.03 45.3473C102.01 45.3796 102.071 45.3912 102.164 45.3733C102.3 45.3476 102.326 45.3634 102.292 45.4518C102.264 45.5237 102.286 45.5627 102.352 45.5627C102.477 45.5627 102.548 45.7244 102.495 45.888C102.462 45.9896 102.468 45.9921 102.532 45.9052C102.595 45.8181 102.613 45.8257 102.648 45.9559C102.672 46.0403 102.718 46.0921 102.752 46.0714C102.785 46.0505 102.859 46.0796 102.915 46.1357C103.051 46.271 103.045 46.3222 102.9 46.2667C102.797 46.2271 102.794 46.2345 102.881 46.327C102.936 46.3862 103.04 46.4168 103.118 46.3967C103.238 46.3658 103.245 46.376 103.168 46.4694C103.113 46.5373 103.105 46.5937 103.147 46.6197C103.184 46.6427 103.203 46.7233 103.188 46.7989C103.173 46.8753 103.191 46.9184 103.228 46.8954C103.264 46.8731 103.276 46.8261 103.254 46.791C103.233 46.7559 103.247 46.7273 103.287 46.7273C103.327 46.7273 103.36 46.7921 103.36 46.8717C103.36 46.9673 103.392 47.0036 103.456 46.9789C103.525 46.9526 103.547 46.9894 103.534 47.1086C103.523 47.2125 103.551 47.2753 103.609 47.2753C103.726 47.2753 103.731 47.3891 103.617 47.4353C103.567 47.4554 103.583 47.4721 103.655 47.4752C103.723 47.4783 103.76 47.5114 103.737 47.5493C103.713 47.587 103.743 47.6178 103.803 47.6178C103.891 47.6178 103.907 47.6779 103.884 47.9258C103.859 48.1981 103.871 48.2341 103.992 48.2341C104.102 48.2341 104.123 48.2689 104.097 48.4054C104.074 48.5251 104.094 48.5766 104.165 48.5766C104.227 48.5766 104.25 48.6168 104.225 48.6819C104.202 48.7419 104.228 48.8042 104.286 48.8263C104.423 48.8792 104.414 49.0324 104.268 49.1261C104.162 49.1934 104.166 49.1988 104.302 49.1699C104.387 49.1521 104.456 49.1674 104.456 49.2036C104.456 49.2401 104.484 49.2526 104.517 49.2319C104.551 49.211 104.595 49.2382 104.616 49.2919C104.637 49.3457 104.617 49.4072 104.572 49.4284C104.51 49.4578 104.511 49.4768 104.576 49.5074C104.623 49.5294 104.645 49.5756 104.624 49.6101C104.602 49.6444 104.633 49.6727 104.692 49.6727C104.75 49.6727 104.798 49.7281 104.798 49.7961C104.798 49.8637 104.835 49.9563 104.881 50.0016C104.926 50.0466 104.937 50.0837 104.907 50.0837C104.876 50.0837 104.889 50.1298 104.935 50.1865C104.994 50.2575 104.997 50.2892 104.944 50.2892C104.837 50.2892 104.848 50.3761 104.974 50.5329C105.075 50.66 105.077 50.6592 105.004 50.5086C104.927 50.3518 104.982 50.36 105.276 50.5499C105.294 50.5612 105.263 50.5992 105.207 50.6343C105.124 50.6872 105.128 50.6982 105.231 50.6991C105.39 50.7005 105.837 51.0379 105.787 51.1189C105.766 51.1523 105.782 51.1798 105.822 51.1798C105.862 51.1798 105.894 51.2123 105.894 51.2522C105.894 51.2921 105.867 51.3077 105.833 51.2868C105.799 51.2661 105.753 51.2967 105.731 51.355C105.708 51.4158 105.72 51.443 105.759 51.4187C105.823 51.3793 106.031 51.5336 106.031 51.6199C106.031 51.6414 105.977 51.6613 105.911 51.6641C105.809 51.6681 105.812 51.6774 105.929 51.7278C106.004 51.7601 106.035 51.7909 105.997 51.7963C105.96 51.8014 105.99 51.8297 106.065 51.8591C106.168 51.8993 106.204 51.9794 106.208 52.1799C106.212 52.3455 106.244 52.4403 106.294 52.4298C106.345 52.419 106.374 52.5133 106.374 52.6866C106.374 52.8756 106.404 52.9606 106.47 52.9606C106.537 52.9606 106.563 53.0401 106.555 53.2289C106.55 53.3767 106.561 53.4961 106.58 53.4947C106.713 53.4854 106.753 53.5378 106.768 53.7464C106.782 53.9451 106.765 53.9774 106.665 53.9451C106.572 53.9154 106.566 53.9219 106.64 53.974C106.691 54.0108 106.733 54.1223 106.733 54.2214C106.733 54.3205 106.765 54.4212 106.804 54.4453C106.843 54.4691 106.856 54.4594 106.834 54.4235C106.812 54.3878 106.822 54.3137 106.857 54.2587C106.9 54.1902 106.92 54.2619 106.921 54.4889C106.921 54.6913 106.895 54.802 106.854 54.7759C106.816 54.7527 106.783 54.7584 106.78 54.7889C106.777 54.8195 106.765 54.965 106.752 55.1122C106.739 55.2594 106.684 55.4052 106.629 55.4361C106.565 55.4714 106.537 55.5682 106.553 55.699C106.57 55.8471 106.548 55.9062 106.475 55.9062C106.381 55.9062 106.342 56.0257 106.369 56.2315C106.383 56.3427 106.259 56.3427 106.213 56.2315C106.193 56.1845 106.183 56.2538 106.19 56.3858C106.201 56.6006 106.186 56.6236 106.039 56.6074C105.903 56.5924 105.89 56.6057 105.96 56.6906C106.048 56.7959 105.829 57.2075 105.685 57.2075C105.65 57.2075 105.63 57.2769 105.638 57.3618C105.648 57.4549 105.621 57.509 105.569 57.4988C105.522 57.4892 105.483 57.528 105.483 57.5843C105.483 57.642 105.422 57.687 105.344 57.687C105.268 57.687 105.188 57.7332 105.166 57.7895C105.144 57.8459 105.099 57.8747 105.065 57.8538C105.013 57.8218 104.971 58.0191 104.995 58.1813C104.999 58.2082 104.961 58.2141 104.909 58.1946C104.854 58.1734 104.801 58.2184 104.778 58.3067C104.755 58.3925 104.707 58.4347 104.663 58.4075C104.621 58.3814 104.543 58.3964 104.49 58.4406C104.437 58.4848 104.366 58.504 104.332 58.4831C104.299 58.4624 104.205 58.5071 104.124 58.5827C104.043 58.6583 103.976 58.6894 103.976 58.6518C103.976 58.6144 103.901 58.6591 103.809 58.7514C103.715 58.8451 103.597 58.9017 103.54 58.8799C103.479 58.8564 103.407 58.8997 103.36 58.9886C103.317 59.0699 103.239 59.1203 103.189 59.1007C103.138 59.0812 103.059 59.1092 103.015 59.1633C102.97 59.2171 102.906 59.2442 102.873 59.2236C102.839 59.2029 102.812 59.2188 102.812 59.2587C102.812 59.2986 102.718 59.3311 102.602 59.3311C102.48 59.3311 102.411 59.3597 102.435 59.3997C102.459 59.4382 102.404 59.4682 102.308 59.4682C102.215 59.4682 102.123 59.5066 102.104 59.5536C102.084 59.6035 102.067 59.5873 102.064 59.5154C102.061 59.4472 102.027 59.411 101.989 59.4345C101.951 59.4582 101.935 59.503 101.954 59.5338C101.996 59.6018 101.679 59.8203 101.56 59.805C101.214 59.7609 100.894 59.8192 100.894 59.9264C100.894 60.032 100.886 60.0315 100.805 59.9202C100.725 59.8115 100.706 59.8095 100.628 59.903C100.581 59.9607 100.501 59.9927 100.453 59.9737C100.404 59.955 100.308 59.9952 100.24 60.0629C100.153 60.1506 100.109 60.1617 100.089 60.1011C100.073 60.0544 100.015 60.0162 99.9595 60.0162C99.9041 60.0162 99.8789 60.0493 99.9041 60.0901C99.9352 60.1402 99.8367 60.158 99.5995 60.1455C99.3736 60.1334 99.2187 60.1594 99.1638 60.2186C99.0945 60.2933 99.1015 60.3021 99.2023 60.2667C99.2756 60.2409 99.3088 60.2506 99.2838 60.2908C99.2606 60.3281 99.0897 60.3587 98.9034 60.3587C98.7174 60.3587 98.5651 60.3901 98.5651 60.4283C98.5651 60.4668 98.4873 60.4841 98.3924 60.4668C98.2968 60.4496 98.237 60.4637 98.2588 60.4988C98.2818 60.5359 98.1397 60.5512 97.9174 60.5359C97.7083 60.5212 97.5209 60.5356 97.5013 60.5673C97.4815 60.5993 97.5288 60.6132 97.6061 60.5985C97.6865 60.5829 97.7289 60.6002 97.7049 60.6387C97.6819 60.6757 97.4515 60.699 97.1928 60.6899C96.8488 60.6783 96.6889 60.7024 96.5989 60.7796C96.4545 60.9039 95.8357 60.9322 95.7018 60.821C95.6342 60.7649 95.6172 60.7706 95.6328 60.8436C95.6444 60.8971 95.6152 60.9331 95.5682 60.9237C95.5209 60.9144 95.4824 60.9373 95.4824 60.975C95.4824 61.0129 95.3746 61.0435 95.2427 61.0435C95.1111 61.0435 95.0029 61.0118 95.0029 60.9727C95.0029 60.926 94.9531 60.9285 94.8574 60.9798C94.7467 61.0389 94.6995 61.0378 94.6604 60.975C94.6239 60.9155 94.5959 60.9135 94.5625 60.9679C94.5367 61.0095 94.3949 61.0435 94.2477 61.0435C94.0277 61.0435 93.9875 61.0636 94.0229 61.1558C94.0586 61.2484 94.0286 61.2623 93.8494 61.236C93.6671 61.2093 93.6323 61.2266 93.6277 61.3466C93.6246 61.4248 93.6077 61.4531 93.5895 61.4092C93.5675 61.3546 93.493 61.3478 93.354 61.3874C93.2425 61.4197 93.1335 61.4451 93.1123 61.4446C93.091 61.4437 93.0565 61.4601 93.0358 61.4811C93.0152 61.5018 93.0647 61.506 93.1462 61.4902C93.2295 61.4743 93.2765 61.4904 93.2535 61.5275C93.2065 61.6039 92.8167 61.5875 92.7669 61.5071C92.7482 61.4768 92.6967 61.4749 92.6523 61.5023C92.6078 61.5298 92.5124 61.5533 92.4405 61.5547C92.3684 61.5561 92.2939 61.6037 92.2749 61.66C92.2466 61.7452 92.2588 61.748 92.3466 61.6756C92.4335 61.6039 92.4595 61.6059 92.4901 61.686C92.5286 61.7862 92.297 61.7998 92.1459 61.7064C92.1074 61.6826 92.0207 61.7243 91.9534 61.7987C91.758 62.0147 91.6174 61.9759 91.7609 61.7458L91.8784 61.5572L91.6491 61.7627C91.5231 61.876 91.4419 61.9298 91.4687 61.8828C91.4956 61.8355 91.4903 61.797 91.4566 61.797C91.4232 61.797 91.3544 61.874 91.304 61.9683C91.2046 62.154 91.058 62.2072 91.1248 62.0334C91.1483 61.9719 91.1367 61.9448 91.0974 61.9691C91.0597 61.9923 91.0116 61.9654 90.9901 61.9094C90.9564 61.8216 90.9349 61.8233 90.8327 61.9221C90.7534 61.9988 90.7381 62.0552 90.7865 62.0922C90.8265 62.1228 90.7577 62.1279 90.6342 62.1036C90.4664 62.0705 90.4146 62.0823 90.4287 62.1508C90.4398 62.2029 90.3891 62.2423 90.311 62.2423C90.2354 62.2423 90.1793 62.2103 90.1861 62.1709C90.1929 62.1316 90.1355 62.0948 90.0582 62.0889C89.9229 62.0787 89.9223 62.0818 90.0457 62.1752C90.166 62.2663 90.1621 62.2723 89.9815 62.2743C89.8586 62.2757 89.806 62.2494 89.8357 62.2012C89.8694 62.1466 89.8436 62.1466 89.7414 62.2012C89.6639 62.2426 89.5371 62.2765 89.4592 62.2765C89.3814 62.2765 89.3177 62.304 89.3177 62.3377C89.3177 62.3714 89.2718 62.4166 89.2158 62.4382C89.1597 62.4597 89.117 62.4551 89.1209 62.4283C89.1535 62.2109 89.0221 62.124 88.9491 62.3145C88.9225 62.3832 88.9358 62.4036 88.9865 62.3722C89.0337 62.343 89.0459 62.3541 89.0176 62.4005C88.9667 62.4826 88.3586 62.497 88.3586 62.4164C88.3586 62.3898 88.3136 62.368 88.259 62.368C88.2041 62.368 88.1735 62.3909 88.1908 62.4192C88.2083 62.4472 88.1837 62.4883 88.1364 62.5098C88.0891 62.5316 88.1197 62.5321 88.2046 62.5112C88.2918 62.4894 88.3586 62.5044 88.3586 62.546C88.3586 62.6386 88.107 62.6423 88.0503 62.5505C88.0271 62.5129 87.9714 62.4826 87.9264 62.4832C87.8774 62.4837 87.8859 62.5106 87.9476 62.5505C88.0042 62.5871 88.0195 62.6213 87.9818 62.627C87.7189 62.6652 87.4904 62.6558 87.4222 62.6038C87.3707 62.5647 87.3186 62.5851 87.2759 62.6615C87.1935 62.8084 86.9614 62.8577 87.0154 62.7164C87.0361 62.6629 87.0231 62.619 86.9866 62.619C86.95 62.619 86.92 62.6638 86.92 62.7181C86.92 62.7962 86.8249 62.8138 86.4705 62.8002C86.1472 62.788 86.0066 62.8096 85.9686 62.8772C85.8967 63.0057 85.5502 63.0394 85.5502 62.918C85.5502 62.8665 85.5174 62.8246 85.4775 62.8246C85.4376 62.8246 85.422 62.8523 85.443 62.886C85.4639 62.9197 85.4322 62.9658 85.373 62.9887C85.2222 63.0465 85.2077 63.0422 85.2077 62.9386C85.2077 62.8885 85.1644 62.8475 85.1115 62.8475C85.0585 62.8475 85.0297 62.8854 85.0475 62.9316C85.0707 62.9924 84.9827 63.0128 84.7327 63.0046C84.5419 62.9984 84.3857 63.0137 84.3857 63.0386C84.3857 63.1266 84.1564 63.1708 84.0831 63.0969C84.0296 63.0428 84.0471 63.0354 84.1459 63.0703C84.2385 63.1031 84.2606 63.096 84.2144 63.049C84.1768 63.0105 84.0533 62.9593 83.9404 62.9352C83.7773 62.9001 83.7595 62.9061 83.8549 62.9641C84.0457 63.0802 83.9945 63.1671 83.7349 63.1671C83.603 63.1671 83.4951 63.1362 83.4951 63.0986C83.4951 63.0609 83.4334 63.0301 83.3581 63.0301C83.2828 63.0301 83.2211 63.0558 83.2211 63.0872C83.2211 63.119 83.098 63.1495 82.9471 63.1555C82.7719 63.1623 82.6731 63.1359 82.6731 63.0827C82.6731 63.0371 82.6252 63.068 82.5666 63.1518C82.4489 63.3197 82.2926 63.3514 82.2391 63.2183C82.2185 63.1674 82.2023 63.1809 82.1992 63.2526C82.1921 63.406 81.8156 63.4204 81.7579 63.2698C81.7361 63.2132 81.6849 63.1671 81.6438 63.1671C81.6028 63.1671 81.5835 63.1906 81.6014 63.2192C81.7446 63.451 80.7691 63.6341 80.6021 63.4068C80.5713 63.3649 80.5514 63.3732 80.5509 63.4281C80.55 63.4773 80.5251 63.5025 80.4951 63.4838C80.4651 63.4654 80.3963 63.4773 80.3425 63.5107C80.278 63.5506 80.1993 63.5314 80.1113 63.4547C80.0382 63.3907 80.0006 63.3768 80.0283 63.4238C80.092 63.5331 79.9864 63.5356 79.8783 63.4272C79.8146 63.3635 79.7962 63.3712 79.7962 63.4615C79.7962 63.5334 79.7421 63.5781 79.6552 63.5781C79.5777 63.5781 79.5332 63.5472 79.5564 63.5096C79.5799 63.4714 79.5287 63.4417 79.4407 63.4422C79.3104 63.4431 79.3005 63.4558 79.3852 63.515C79.4667 63.5722 79.4576 63.5787 79.341 63.5458C79.2541 63.5218 79.1531 63.5461 79.0933 63.6056C79.0155 63.6837 78.973 63.6879 78.9051 63.6251C78.8369 63.562 78.8281 63.5631 78.8655 63.6293C78.8989 63.6885 78.8581 63.7151 78.7344 63.7151C78.6359 63.7151 78.5719 63.6877 78.5926 63.6543C78.6132 63.6208 78.5844 63.5555 78.5283 63.509C78.4573 63.4502 78.4261 63.4479 78.4261 63.5011C78.4261 63.5436 78.459 63.5781 78.4989 63.5781C78.5388 63.5781 78.5535 63.6067 78.532 63.6415C78.5105 63.6763 78.3469 63.6961 78.1685 63.6857C77.9848 63.6746 77.7884 63.7043 77.7162 63.7539C77.646 63.8023 77.5407 63.8235 77.4824 63.8009C77.424 63.7785 77.3938 63.7887 77.415 63.8232C77.4385 63.8612 76.3291 63.8864 74.6244 63.8864C73.0681 63.8864 71.8079 63.8654 71.8237 63.8397C71.8396 63.8139 71.8212 63.7737 71.783 63.7499C71.7447 63.7264 71.7133 63.7474 71.7133 63.7966C71.7133 63.8674 71.4325 63.8864 70.3775 63.8864C69.6429 63.8864 69.0417 63.8632 69.0417 63.8349C69.0417 63.8065 69.0091 63.7836 68.9692 63.7836C68.9293 63.7836 68.9194 63.8221 68.9468 63.8691C68.9743 63.9164 68.9352 63.9008 68.8599 63.8349C68.7844 63.7689 68.6943 63.7154 68.6595 63.7162C68.625 63.7168 68.6377 63.7431 68.6878 63.7751C68.7614 63.8218 68.758 63.8411 68.6708 63.8748C68.6111 63.8974 68.5624 63.8864 68.5624 63.8498C68.5624 63.8133 68.5143 63.7836 68.4554 63.7836C68.3968 63.7836 68.3665 63.7547 68.3883 63.7194C68.4124 63.6803 68.3496 63.678 68.2264 63.7131C68.1154 63.7451 68.0042 63.7508 67.9796 63.7259C67.9547 63.7012 67.9448 63.7264 67.9572 63.7819C67.9869 63.9138 67.6736 63.9648 67.5949 63.8408C67.547 63.7652 67.5368 63.7655 67.536 63.8433C67.5349 63.9229 67.517 63.9229 67.4188 63.8433C67.3427 63.7816 67.3206 63.7782 67.3537 63.834C67.3942 63.9008 65.7402 63.9169 59.4211 63.9104C54.9539 63.9062 51.4373 63.8765 51.4373 63.8431C51.4373 63.8102 51.4048 63.7836 51.3648 63.7836C51.3249 63.7836 51.3088 63.8102 51.3289 63.8428C51.349 63.8753 51.2471 63.9019 51.1022 63.9019C50.8989 63.9019 50.8423 63.8765 50.8542 63.7913C50.8627 63.7307 50.8564 63.7194 50.8403 63.7663C50.8242 63.8136 50.7899 63.8524 50.7644 63.8527C50.739 63.853 49.8796 63.8634 48.8545 63.8759C47.1957 63.8963 46.9877 63.8869 46.9616 63.7898C46.9362 63.6947 46.9314 63.6944 46.9246 63.787C46.9149 63.915 45.6459 63.9574 45.5686 63.8323C45.5412 63.7879 45.5669 63.7768 45.6357 63.8031C45.6974 63.8266 45.7659 63.8167 45.788 63.7805C45.8548 63.6726 45.5703 63.7066 45.4781 63.8179C45.334 63.9914 45.0005 63.9526 45.0342 63.7663C45.0599 63.6228 45.0554 63.6206 44.9685 63.7358C44.9173 63.8037 44.8646 63.8281 44.8513 63.7898C44.8352 63.7434 40.5251 63.7174 31.8146 63.7106C19.8302 63.7012 18.7952 63.6916 18.7163 63.588C18.637 63.4836 18.6305 63.4836 18.6285 63.5889C18.6254 63.7471 17.4617 63.7618 17.4617 63.6039C17.4617 63.5187 17.0688 63.509 14.6567 63.5345C12.586 63.5563 11.8432 63.5436 11.8194 63.4855C11.7971 63.4309 11.7855 63.4332 11.7818 63.4923C11.7787 63.5396 11.7422 63.5781 11.7006 63.5781C11.6581 63.5781 11.6431 63.5252 11.6663 63.4581C11.7011 63.3581 11.6909 63.3604 11.6052 63.4714C11.514 63.5891 11.4715 63.5724 11.4933 63.4264C11.4973 63.3995 11.4548 63.395 11.3991 63.4165C11.3433 63.438 11.3099 63.4753 11.3249 63.4997C11.3399 63.524 11.2782 63.5438 11.1876 63.5438C11.097 63.5438 11.0229 63.5189 11.0229 63.4884C11.0229 63.4578 10.9946 63.4504 10.96 63.4717C10.9258 63.4929 10.885 63.4731 10.8697 63.4272C10.8513 63.3723 10.6693 63.3432 10.333 63.3412C10.0531 63.3395 9.78075 63.3103 9.72782 63.2763C9.66724 63.2373 9.64714 63.2393 9.67318 63.2814C9.69865 63.3225 9.51976 63.3528 9.2112 63.3596C8.83189 63.3678 8.69856 63.3465 8.67026 63.2732C8.64846 63.216 8.54542 63.1784 8.41973 63.1821C8.27848 63.186 8.23658 63.2073 8.29574 63.2449C8.36057 63.286 8.34615 63.3024 8.24509 63.303C8.16781 63.3035 8.07523 63.2746 8.03928 63.2384C8.00247 63.2016 7.33556 63.1682 6.51437 63.162C5.35773 63.1532 5.06192 63.1328 5.08852 63.0629C5.10721 63.0148 5.06277 62.9596 4.99001 62.9403C4.91727 62.9214 4.87509 62.9338 4.89604 62.9681C4.91727 63.002 4.88471 63.0301 4.82357 63.0301C4.76044 63.0301 4.7327 62.9975 4.75931 62.9548C4.79186 62.9024 4.76695 62.8987 4.67778 62.9429C4.44736 63.057 4.11787 63.0405 4.03465 62.9109C3.96275 62.7991 3.95963 62.7991 3.99387 62.9092C4.02275 63.002 3.99359 63.025 3.86055 63.0139C3.75383 63.0052 3.70288 62.9672 3.72382 62.9123C3.75723 62.8257 3.46991 62.7909 2.98953 62.8226C2.863 62.8311 2.80553 62.8047 2.81827 62.7442C2.83016 62.6864 2.78317 62.6607 2.68863 62.6737C2.5921 62.687 2.52897 62.6513 2.50831 62.5709C2.47887 62.4574 2.47575 62.4571 2.46839 62.5678C2.45877 62.7139 2.36705 62.7215 2.23315 62.5876C2.17824 62.5324 2.0452 62.4716 1.93763 62.452C1.83006 62.4325 1.73156 62.3852 1.71882 62.3467C1.70609 62.3079 1.65172 62.2765 1.5985 62.2765C1.54501 62.2765 1.50142 62.2225 1.50142 62.1559C1.50142 62.0019 1.26788 61.8545 1.11615 61.9125C1.03717 61.9428 1.01537 61.9315 1.04906 61.8771C1.08076 61.8259 1.04765 61.797 0.957352 61.797C0.852615 61.797 0.816376 61.7531 0.816376 61.6257C0.816376 61.5318 0.783829 61.4545 0.743912 61.4545C0.704002 61.4545 0.693237 61.4902 0.720131 61.5337C0.75042 61.5827 0.739098 61.594 0.690125 61.5637C0.64653 61.5369 0.61087 61.4686 0.61087 61.4123C0.61087 61.3557 0.58284 61.3268 0.548584 61.348C0.475555 61.3931 0.374214 60.8756 0.436211 60.7751C0.459419 60.7377 0.516884 60.7219 0.564156 60.74C0.615677 60.7598 0.649933 60.7171 0.649933 60.6327C0.649933 60.5526 0.615105 60.5056 0.568962 60.5232C0.523392 60.5407 0.472443 60.4745 0.452339 60.3709C0.432808 60.2698 0.444702 60.1773 0.478958 60.1648C0.514908 60.1515 0.516319 60.0938 0.482071 60.0278C0.449516 59.9647 0.429695 58.8884 0.438469 57.6358C0.451492 55.7573 0.437904 55.3582 0.361191 55.3582C0.226166 55.3582 0.245979 53.4729 0.383553 53.2499C0.436211 53.1641 0.461113 53.0639 0.438469 53.0271C0.415825 52.9906 0.445267 52.9606 0.504143 52.9606C0.584816 52.9606 0.61087 52.8861 0.61087 52.6557C0.61087 52.4516 0.645966 52.3313 0.717018 52.2917C0.861954 52.2104 0.871284 50.1542 0.727203 50.0735C0.606613 50.0059 0.568123 44.9462 0.688431 44.9462C0.740234 44.9462 0.737396 44.9134 0.679367 44.8434C0.609444 44.7594 0.614258 44.7407 0.705406 44.7407C0.767395 44.7407 0.81411 44.688 0.810997 44.6209C0.807884 44.5493 0.791748 44.5354 0.77108 44.5867C0.680214 44.812 0.620773 44.6218 0.632385 44.1414C0.641724 43.7584 0.668892 43.6152 0.730881 43.6276C0.777878 43.637 0.817505 43.6061 0.818634 43.5591C0.819771 43.5121 0.825722 43.1402 0.831665 42.7331C0.837608 42.3258 0.867607 41.9773 0.897896 41.9583C0.928467 41.9397 0.95282 41.8876 0.952255 41.8426C0.951691 41.7936 0.924797 41.8021 0.88488 41.8638C0.831383 41.9467 0.818352 41.9363 0.817497 41.8103C0.816933 41.7242 0.856003 41.6388 0.904411 41.6201C0.968102 41.5957 0.989052 41.4214 0.979988 40.9888C0.973198 40.6599 0.995285 40.3389 1.02925 40.2752C1.06718 40.2039 1.06464 40.1433 1.02218 40.1172C0.984245 40.0937 0.953392 40.0439 0.953392 40.0063C0.953392 39.9686 0.97773 39.9528 1.00716 39.9709C1.03689 39.9893 1.06096 39.9471 1.06096 39.8772C1.06096 39.8076 1.04227 39.762 1.01935 39.7761C0.950272 39.8189 0.982529 38.9606 1.05415 38.8499C1.15549 38.6931 1.15012 38.4389 1.04567 38.4389C0.994995 38.4389 0.953392 38.4089 0.953392 38.3724C0.953392 38.3359 1.00378 38.3254 1.06548 38.3492C1.14333 38.3789 1.16682 38.3625 1.14247 38.2957C1.12322 38.2424 1.07284 38.2068 1.03038 38.2161C0.924507 38.2396 0.933846 38.1629 1.05331 38.031C1.12067 37.9565 1.15663 37.7437 1.16428 37.3748C1.1705 37.0748 1.21013 36.7846 1.25287 36.7303C1.31062 36.6564 1.31033 36.6434 1.25117 36.679C1.14813 36.7404 1.1371 36.073 1.23815 35.8844C1.28939 35.7885 1.28827 35.7638 1.2342 35.7972C1.18353 35.8287 1.15889 35.7401 1.15889 35.5275C1.15889 35.3341 1.18549 35.2277 1.22739 35.2535C1.3007 35.299 1.30438 35.2724 1.31514 34.6225C1.32024 34.2989 1.34742 34.19 1.42867 34.1682C1.51472 34.1449 1.51217 34.1376 1.41564 34.1314C1.23759 34.1195 1.28005 33.1644 1.45895 33.1644C1.50962 33.1644 1.53368 32.9776 1.53 32.6135C1.52603 32.2206 1.54756 32.0714 1.60418 32.0932C1.64805 32.1099 1.684 32.0833 1.684 32.0341C1.684 31.9848 1.64295 31.9602 1.59285 31.9794C1.45245 32.0332 1.48415 31.9344 1.6554 31.783C1.74033 31.7082 1.76807 31.6683 1.71741 31.6947C1.57757 31.7666 1.66531 31.2409 1.80628 31.1619C1.89149 31.1141 1.90819 31.0371 1.87733 30.8304C1.85242 30.6629 1.86431 30.5612 1.90904 30.5612C1.94867 30.5612 1.98094 30.5151 1.98094 30.4585C1.98094 30.4021 1.95094 30.3557 1.91442 30.3557C1.87819 30.3557 1.86685 30.307 1.88979 30.2473C1.92347 30.1601 1.94273 30.1567 1.98943 30.2303C2.0435 30.3155 2.08823 30.0984 2.05397 29.917C2.04746 29.8827 2.08228 29.8292 2.13153 29.7981C2.19975 29.7548 2.20061 29.7412 2.13493 29.7403C2.08794 29.7398 2.04945 29.6778 2.04945 29.6025C2.04945 29.5269 2.08398 29.4655 2.12616 29.4655C2.17966 29.4655 2.17739 29.4343 2.11852 29.3635C2.02368 29.2489 2.07916 29.0222 2.18588 29.0884C2.22382 29.1119 2.25495 29.0675 2.25495 28.9899C2.25495 28.9123 2.28581 28.8489 2.32346 28.8489C2.36111 28.8489 2.39197 28.7699 2.39197 28.6737C2.39197 28.5741 2.42141 28.5166 2.46047 28.5407C2.49812 28.5639 2.52898 28.535 2.52898 28.4761C2.52898 28.4175 2.56662 28.377 2.61276 28.3864C2.65919 28.396 2.70816 28.3292 2.72175 28.2383C2.74072 28.1146 2.76137 28.0968 2.80553 28.1678C2.85195 28.2431 2.87319 28.2349 2.90829 28.1276C2.93235 28.0535 2.98076 27.9309 3.01558 27.8556C3.05011 27.7803 3.09258 27.5338 3.10956 27.3076C3.1441 26.8535 3.14381 26.8852 3.11947 26.2115C3.10277 25.7524 3.16673 25.4552 3.26864 25.5183C3.29497 25.5344 3.31138 24.7494 3.30515 23.7734C3.29694 22.4534 3.31451 21.9988 3.37452 21.9988C3.42462 21.9988 3.45348 21.883 3.4515 21.6906C3.44952 21.5213 3.47245 21.3826 3.50217 21.3826C3.5319 21.3826 3.55624 21.3497 3.55624 21.3098C3.55624 21.2699 3.52596 21.2563 3.48859 21.2792C3.44981 21.3033 3.4382 21.2759 3.4617 21.2153C3.48406 21.157 3.52992 21.1264 3.56361 21.1471C3.59729 21.168 3.62474 21.0426 3.62474 20.8688C3.62474 20.6355 3.64739 20.5651 3.71052 20.6007C3.77902 20.6395 3.77902 20.6307 3.71052 20.5568C3.66353 20.5062 3.62474 20.4031 3.62474 20.3281C3.62474 20.1934 3.62617 20.1934 3.72807 20.3247C3.82291 20.4467 3.82857 20.4266 3.798 20.081C3.76176 19.6708 3.80394 19.4398 3.90387 19.5018C3.95737 19.5349 3.99755 19.2573 3.98595 18.9343C3.98425 18.8876 4.00662 18.8641 4.03578 18.8822C4.10626 18.9258 4.21723 18.7718 4.20902 18.6424C4.20535 18.5861 4.23449 18.517 4.27327 18.4893C4.32054 18.4559 4.31829 18.4386 4.26649 18.438C4.22261 18.4375 4.1875 18.3183 4.18524 18.1629C4.18269 17.9687 4.21015 17.8889 4.27979 17.8889C4.33414 17.8889 4.37829 17.858 4.37829 17.8204C4.37829 17.7827 4.3398 17.7598 4.29281 17.7691C4.23733 17.7802 4.20703 17.7018 4.20703 17.5464C4.20703 17.3966 4.23788 17.3128 4.28941 17.3227C4.348 17.334 4.36526 17.2197 4.3497 16.925C4.33073 16.5678 4.3429 16.5165 4.43858 16.5494C4.53313 16.5822 4.53229 16.5743 4.43208 16.4962C4.33923 16.4237 4.33187 16.3858 4.39783 16.3147C4.4635 16.2439 4.46294 16.2352 4.39557 16.2731C4.33952 16.3048 4.30978 16.2745 4.30978 16.1862C4.30978 15.9594 4.38566 15.8233 4.47199 15.8949C4.52917 15.9422 4.54361 15.8131 4.52691 15.4077C4.50992 15.0024 4.52832 14.8405 4.59541 14.798C4.66364 14.7547 4.66504 14.74 4.60107 14.7391C4.55379 14.7385 4.5153 14.7054 4.5153 14.6655C4.5153 14.6256 4.54303 14.61 4.57672 14.6307C4.66617 14.6862 4.70242 14.5395 4.68571 14.1899C4.67751 14.0204 4.70071 13.8242 4.73694 13.7537C4.78336 13.6637 4.78054 13.6394 4.72761 13.6719C4.68118 13.7008 4.65287 13.6581 4.65343 13.5604C4.65429 13.4327 4.66731 13.422 4.72194 13.5049C4.77007 13.5788 4.77771 13.5471 4.74799 13.3934C4.72392 13.2677 4.73808 13.1598 4.78253 13.1327C4.82386 13.1069 4.85782 12.9908 4.85782 12.8748C4.85782 12.7573 4.91076 12.6203 4.97784 12.5651C5.08994 12.4725 5.08881 12.4689 4.96058 12.5062C4.82555 12.5459 4.82555 12.5447 4.95661 12.4434C5.0639 12.3604 5.0687 12.3406 4.9818 12.3406C4.90622 12.3406 4.87622 12.2803 4.88216 12.1405C4.88641 12.0304 4.92151 11.9455 4.95972 11.952C5.00049 11.959 5.03757 11.7377 5.04946 11.4167C5.06334 11.0439 5.09928 10.8531 5.16298 10.8174C5.21874 10.7863 5.24053 10.7059 5.21732 10.6176C5.19099 10.5162 5.20374 10.4851 5.25809 10.5185C5.30168 10.5457 5.33734 10.5332 5.33734 10.491C5.33734 10.4488 5.36226 10.4299 5.39227 10.4486C5.42255 10.4672 5.44577 10.3996 5.44379 10.2983C5.4418 10.1955 5.47464 10.1208 5.5188 10.129C5.56182 10.1372 5.58391 10.091 5.56749 10.0262C5.52248 9.84703 5.87095 9.5031 5.99408 9.60557C6.11382 9.70465 6.12259 9.59368 6.00512 9.46715C5.9536 9.41138 5.95077 9.39242 5.99804 9.41874C6.04107 9.44309 6.09428 9.41676 6.1158 9.36043C6.16251 9.23842 6.47869 9.22257 6.51775 9.34033C6.53503 9.39213 6.56136 9.38053 6.5891 9.30806C6.61315 9.24522 6.59872 9.17275 6.55682 9.14699C6.50756 9.11642 6.50021 9.13142 6.53616 9.18945C6.57296 9.24946 6.56475 9.26277 6.51125 9.22965C6.41642 9.17105 6.47672 9.04452 6.59278 9.05896C6.7646 9.08018 6.84357 9.04905 6.82716 8.96696C6.81668 8.91402 6.88859 8.88062 7.01569 8.8792C7.151 8.87779 7.2144 8.8458 7.2011 8.78522C7.18836 8.72663 7.22035 8.70823 7.28857 8.73455C7.35141 8.75861 7.44454 8.71927 7.5122 8.64001C7.66477 8.46195 7.72903 8.46846 7.69252 8.65869L7.6628 8.81268L7.74348 8.65869C7.82896 8.49564 8.07664 8.44497 8.07835 8.59019C8.07919 8.65331 8.09505 8.65133 8.13836 8.58311C8.17856 8.51913 8.30424 8.4979 8.53947 8.51461C8.79849 8.533 8.87379 8.51715 8.84802 8.45035C8.82368 8.38722 8.86613 8.37137 8.99493 8.39458C9.09798 8.41326 9.15912 8.39996 9.13647 8.36316C9.11468 8.32806 9.19112 8.29919 9.30633 8.29919C9.42776 8.29919 9.51636 8.33514 9.51692 8.38467C9.51749 8.44638 9.53476 8.44384 9.57807 8.37533C9.61685 8.31391 9.69866 8.29579 9.80963 8.32353C9.92625 8.35297 9.99305 8.33514 10.0188 8.26805C10.048 8.19247 10.1855 8.1718 10.613 8.17916C11.0249 8.18652 11.1848 8.16416 11.2287 8.09282C11.2709 8.02489 11.4503 7.99347 11.8449 7.98582C12.1538 7.97988 12.4366 7.94025 12.4796 7.89722C12.5223 7.85448 12.6908 7.81966 12.8538 7.81966C13.0568 7.81966 13.1632 7.78654 13.1907 7.7152C13.2215 7.63453 13.2524 7.62858 13.3257 7.68916C13.3945 7.74634 13.4202 7.74691 13.4202 7.69086C13.4202 7.64868 13.5281 7.61415 13.66 7.61415C13.7919 7.61415 13.8997 7.58329 13.8997 7.54564C13.8997 7.50799 13.9499 7.47714 14.011 7.47714C14.0988 7.47714 14.1053 7.49724 14.0419 7.57367C13.9802 7.64812 13.9821 7.68208 14.0506 7.72171C14.0996 7.75002 14.1169 7.74804 14.0894 7.71775C14.062 7.68718 14.105 7.60509 14.1854 7.53545C14.368 7.37721 14.4065 7.37552 14.3487 7.52838C14.3062 7.64047 14.3108 7.64076 14.4192 7.53375C14.5067 7.44713 14.5757 7.43468 14.7009 7.48223C14.792 7.51677 14.852 7.52158 14.8342 7.49243C14.8161 7.46355 15.2328 7.44119 15.7596 7.4426C16.3874 7.44459 16.7396 7.41911 16.7815 7.36872C16.8166 7.32654 17.0501 7.28946 17.3006 7.28663C17.5511 7.28352 17.7767 7.24728 17.8025 7.20624C17.8721 7.09301 18.4889 7.04375 18.4904 7.15132C18.4909 7.20709 18.509 7.21218 18.5416 7.16604C18.6061 7.07433 18.9908 7.04319 18.9348 7.13434C18.9107 7.17312 18.9396 7.18359 19.0033 7.15925C19.0644 7.13575 19.0967 7.07291 19.0755 7.01771C19.0458 6.93987 19.0998 6.92118 19.3285 6.93024C20.0861 6.96025 20.3544 6.93194 20.3139 6.82635C20.2822 6.74341 20.3405 6.7236 20.6148 6.7236C20.8019 6.7236 20.9551 6.69784 20.9551 6.66642C20.9551 6.60216 20.9806 6.5982 21.4977 6.58376C21.7095 6.57782 21.9096 6.53252 21.9637 6.47846C22.0276 6.41448 22.1641 6.39297 22.3804 6.41278C22.5573 6.42892 22.8098 6.41618 22.9417 6.38419C23.0736 6.35249 23.1223 6.32333 23.0501 6.31965C22.711 6.30153 23.0767 6.20954 23.5002 6.20614C23.8164 6.20387 23.9973 6.17245 24.0338 6.11329C24.0958 6.01337 24.3803 6.07224 24.3803 6.18519C24.3803 6.22284 24.4312 6.20274 24.4938 6.14018C24.5626 6.07168 24.6738 6.03941 24.7757 6.05894C24.885 6.07989 24.9917 6.04365 25.0795 5.95562C25.1834 5.85201 25.2686 5.83022 25.4438 5.86305C25.6207 5.89646 25.6886 5.87834 25.7444 5.78408C25.807 5.67764 25.8251 5.67509 25.8848 5.76454C25.931 5.83361 25.9539 5.83928 25.9547 5.78181C25.9553 5.73454 25.9884 5.69604 26.0283 5.69604C26.0682 5.69604 26.083 5.72491 26.0615 5.75973C26.0397 5.79483 26.0541 5.84352 26.0932 5.86758C26.1325 5.89193 26.156 5.87098 26.1458 5.82116C26.1336 5.762 26.1922 5.73284 26.3131 5.73765C26.4156 5.74161 26.4832 5.7184 26.4634 5.68613C26.4433 5.65386 26.4829 5.62527 26.5509 5.62216C26.6268 5.61876 26.6406 5.60291 26.5871 5.5814C26.5387 5.56215 26.4538 5.58366 26.3986 5.62952C26.3301 5.68642 26.2981 5.68896 26.2981 5.63716C26.2981 5.52733 26.661 5.44892 26.6953 5.55139C26.7134 5.60602 26.7963 5.57743 26.9421 5.46618C27.1108 5.33739 27.1901 5.31474 27.2846 5.36739C27.3687 5.41466 27.431 5.41268 27.4831 5.3606C27.5827 5.26096 27.6897 5.2635 27.6274 5.36428C27.596 5.41466 27.6087 5.42457 27.6622 5.39145C27.7084 5.36315 27.7319 5.30313 27.7146 5.25812C27.6925 5.20038 27.8335 5.17292 28.2021 5.16358C28.5035 5.15594 28.7407 5.11772 28.7688 5.07186C28.7959 5.02827 28.8559 5.01723 28.9041 5.04723C28.9627 5.08347 28.9737 5.07328 28.9383 5.01581C28.8996 4.95297 28.9465 4.93627 29.1161 4.95156C29.2896 4.96741 29.3409 4.94788 29.3244 4.87201C29.3072 4.79332 29.3208 4.78935 29.3862 4.8539C29.447 4.91334 29.5073 4.91617 29.6044 4.86437C29.6783 4.82474 29.8292 4.80549 29.9396 4.82191C30.05 4.83804 30.1589 4.82078 30.1819 4.78369C30.2051 4.74633 30.1915 4.73585 30.1519 4.76048C30.1122 4.78483 30.0624 4.75907 30.0409 4.7033C29.9999 4.59573 30.1592 4.58979 30.3243 4.69283C30.3724 4.72283 30.4072 4.72198 30.4018 4.69085C30.3752 4.53855 30.4199 4.46297 30.5368 4.46297C30.6076 4.46297 30.705 4.41541 30.7531 4.3571C30.8015 4.29907 30.8816 4.2668 30.9312 4.28577C30.9804 4.30473 31.0486 4.27076 31.0826 4.21047C31.1166 4.14989 31.2236 4.09611 31.321 4.09101C31.4181 4.08563 31.5222 4.0545 31.5522 4.02166C31.5825 3.98826 31.5686 3.98373 31.5214 4.0109C31.4741 4.03808 31.4356 4.02534 31.4356 3.98231C31.4356 3.93532 31.5299 3.91268 31.674 3.92513C31.8053 3.93645 31.9055 3.91579 31.8967 3.87899C31.888 3.84247 31.8554 3.82068 31.8246 3.83115C31.7934 3.84162 31.7875 3.81841 31.8112 3.77991C31.8353 3.74113 31.9146 3.70971 31.9876 3.70971C32.0609 3.70971 32.1206 3.67971 32.1206 3.64319C32.1206 3.60667 32.1682 3.59507 32.2262 3.61743C32.2843 3.63979 32.3267 3.63102 32.3208 3.59818C32.2882 3.419 32.3276 3.33181 32.3947 3.4357C32.4388 3.5042 32.4615 3.50986 32.462 3.45268C32.4626 3.40569 32.5093 3.36719 32.5659 3.36719C32.6223 3.36719 32.6687 3.33634 32.6687 3.29869C32.6687 3.26104 32.6916 3.23528 32.7199 3.24123C32.8688 3.27378 33.1561 3.13988 33.0689 3.07874C33.005 3.03373 33.0358 3.02326 33.1706 3.04505C33.2889 3.06402 33.3775 3.04222 33.3976 2.98957C33.416 2.94173 33.4907 2.91824 33.5635 2.93749C33.6807 2.96806 33.7237 2.91229 33.709 2.74811C33.7073 2.72773 33.786 2.70452 33.8842 2.69631C33.9824 2.68838 34.1191 2.63064 34.1879 2.56808C34.257 2.5058 34.3312 2.4724 34.353 2.49419C34.3748 2.51599 34.4526 2.47353 34.5262 2.39993C34.5998 2.32633 34.6901 2.28472 34.7266 2.30708C34.7631 2.32973 34.8127 2.29746 34.8365 2.23546C34.8687 2.15139 34.8931 2.14431 34.9321 2.20744C34.9701 2.26887 35.0309 2.24197 35.1529 2.11035C35.3214 1.92861 35.4581 1.86181 35.3701 2.00391C35.3375 2.05684 35.3667 2.05628 35.4688 2.00165C35.5487 1.9589 35.6141 1.89804 35.6141 1.86662C35.6141 1.8352 35.6681 1.80972 35.7341 1.81C36.0271 1.81114 36.0882 1.78849 36.0511 1.69225C36.0228 1.61808 36.0625 1.59628 36.2074 1.60676C36.3319 1.61553 36.3956 1.58949 36.3846 1.53486C36.3741 1.48136 36.4452 1.44909 36.5731 1.44909C36.7101 1.44909 36.7786 1.41483 36.7786 1.34633C36.7786 1.29 36.8112 1.24357 36.8511 1.24357C36.891 1.24357 36.9046 1.27443 36.8814 1.31208C36.8582 1.34973 36.8718 1.38058 36.9117 1.38058C36.9513 1.38058 36.9841 1.34973 36.9841 1.31208C36.9841 1.27443 37.0167 1.24357 37.0566 1.24357C37.0965 1.24357 37.1104 1.27415 37.0875 1.31123C37.064 1.34916 37.0894 1.36218 37.1449 1.34095C37.1998 1.31972 37.261 1.23989 37.2811 1.16346C37.3009 1.08703 37.3479 1.04316 37.385 1.06609C37.4221 1.08902 37.494 1.06665 37.5443 1.01598C37.595 0.965596 37.7054 0.929079 37.7898 0.935307C37.9027 0.943799 37.9435 0.909264 37.944 0.803961C37.9449 0.686768 37.9571 0.679691 38.0117 0.764047C38.0516 0.82604 38.0785 0.834532 38.0791 0.785278C38.0796 0.740269 38.1399 0.715075 38.2132 0.729229C38.3061 0.747063 38.335 0.725266 38.3086 0.656762C38.2834 0.591655 38.3174 0.558536 38.4094 0.558536C38.4858 0.558536 38.56 0.523151 38.5744 0.479558C38.6073 0.381615 38.9209 0.350193 38.9792 0.439362C39.0053 0.479275 39.0401 0.475029 39.0687 0.428888C39.0945 0.387276 39.0831 0.353024 39.0432 0.353024C39.0033 0.353024 38.9705 0.325849 38.9705 0.292729C38.9705 0.202712 39.2954 0.157137 39.3741 0.236115C39.4194 0.281406 39.4296 0.255081 39.4039 0.15742C39.3518 -0.0424299 39.5086 -0.0226147 39.7115 0.196201ZM1.02727 38.5244C1.07029 38.6656 1.06576 38.7885 1.01622 38.8191C0.982254 38.84 0.960739 38.7786 0.968666 38.6823C0.981125 38.5334 1.00774 38.4613 1.02727 38.5244ZM81.0519 63.2526C81.0519 63.2998 81.1238 63.3383 81.2119 63.3383C81.4117 63.3383 81.4131 63.3163 81.2175 63.2376C81.1329 63.2036 81.061 63.1739 81.0579 63.1713C81.0545 63.1691 81.0519 63.2056 81.0519 63.2526ZM72.3734 63.7494C72.3961 63.808 72.498 63.8521 72.6112 63.8521C72.8816 63.8521 72.8626 63.7304 72.5866 63.6961C72.4643 63.6809 72.3573 63.6636 72.3491 63.6576C72.3409 63.6514 72.3519 63.6927 72.3734 63.7494ZM73.0596 63.7663C73.0421 63.7947 73.9159 63.8179 75.0012 63.8179C76.0865 63.8179 76.9604 63.7947 76.9428 63.7663C76.9256 63.738 76.0517 63.7151 75.0012 63.7151C73.9507 63.7151 73.0772 63.738 73.0596 63.7663Z" fill="#F8F8F8"/>
</svg>
