<svg width="352" height="208" viewBox="0 0 352 208" fill="none" xmlns="http://www.w3.org/2000/svg">
<path d="M6.50845 201.805C6.50845 181.707 10.467 161.806 18.158 143.239C25.849 124.671 37.1219 107.8 51.333 93.5886" stroke="#FF003F" stroke-width="11.3039"/>
<path d="M346.202 200.302C346.202 180.204 342.244 160.304 334.553 141.736C326.862 123.168 315.589 106.297 301.378 92.0859" stroke="#13F200" stroke-width="11.3039"/>
<path d="M293.313 83.5203C279.102 69.3092 262.231 58.0363 243.663 50.3453C225.096 42.6543 205.195 38.6958 185.097 38.6958" stroke="#FFFF2C" stroke-width="11.3039"/>
<path d="M60.1306 83.5204C74.3418 69.3092 91.2128 58.0363 109.781 50.3453C128.348 42.6543 148.249 38.6958 168.347 38.6958" stroke="#FFC14F" stroke-width="11.3039"/>
<circle cx="292.598" cy="82.7612" r="5.65133" fill="#FFFF00"/>
<circle cx="303.615" cy="94.279" r="5.65133" fill="#13F200"/>
<circle cx="302.113" cy="92.7763" r="5.65133" fill="#13F200"/>
<circle cx="346.182" cy="201.947" r="5.65133" fill="#13F200"/>
<circle cx="185.431" cy="38.6923" r="5.65133" fill="#FFFF00"/>
<circle cx="168.404" cy="38.6923" r="5.65133" fill="#FFC14F"/>
<circle cx="59.7343" cy="83.7622" r="5.65133" fill="#FFC14F"/>
<circle cx="50.7202" cy="94.279" r="5.65133" fill="#FF003F"/>
<circle cx="6.65133" cy="201.947" r="5.65133" fill="#FF003F"/>
</svg>
